<!-- Generator: Adobe Illustrator 18.0.0, SVG Export Plug-In  -->
<svg version="1.1"
	 xmlns="http://www.w3.org/2000/svg" xmlns:xlink="http://www.w3.org/1999/xlink" xmlns:a="http://ns.adobe.com/AdobeSVGViewerExtensions/3.0/"
	 x="0px" y="0px" width="12.4px" height="17.8px" viewBox="0 0 12.4 17.8" enable-background="new 0 0 12.4 17.8"
	 xml:space="preserve">
<path fill="#313131" d="M12,17.4H8.5c-0.2,0-0.4-0.2-0.4-0.4V0.8c0-0.2,0.2-0.4,0.4-0.4H12c0.2,0,0.4,0.2,0.4,0.4V17
	C12.4,17.2,12.2,17.4,12,17.4z"/>
<path fill="#313131" d="M7.2,4.6c0-0.2-0.1-0.4-0.3-0.5l-6.2-4C0.5-0.1,0,0.1,0,0.5v16.9c0,0.4,0.5,0.6,0.8,0.4l6.2-4
	c0.2-0.1,0.3-0.3,0.3-0.5V4.6z"/>
</svg>
