<svg version="1.1"
	 xmlns="http://www.w3.org/2000/svg" xmlns:xlink="http://www.w3.org/1999/xlink" xmlns:a="http://ns.adobe.com/AdobeSVGViewerExtensions/3.0/"
	 x="0px" y="0px" width="20.8px" height="17.5px" viewBox="0 0 20.8 17.5" enable-background="new 0 0 20.8 17.5"
	 xml:space="preserve">
<path fill="#FFFFFF" d="M0,6.2c0.2-0.5,0.6-0.7,1.1-0.6c0.7,0,1.5,0,2.2,0c0.2,0,0.3,0,0.4-0.2c1.7-1.6,3.3-3.3,5-4.9
	c0.2-0.2,0.4-0.3,0.6-0.4c0.5-0.2,0.9,0,1.1,0.5c0,0.1,0,0.3,0,0.4c0,5.1,0,10.2,0,15.2c0,0.2,0,0.5-0.1,0.7
	c-0.2,0.5-0.6,0.7-1.1,0.4C9,17.3,8.9,17.1,8.7,17c-1.7-1.6-3.3-3.3-5-4.9c-0.1-0.1-0.2-0.1-0.4-0.1c-0.8,0-1.5,0-2.3,0
	c-0.5,0-0.9-0.1-1.1-0.6C0,9.6,0,7.9,0,6.2z"/>
<path fill="#FFFFFF" d="M14.4,8.8c0,1.5-1.1,2.8-2.4,3.1c-0.4,0.1-0.7-0.1-0.9-0.5c-0.1-0.4,0-0.7,0.3-0.9c0.1,0,0.2-0.1,0.3-0.1
	c0.7-0.3,1.1-0.8,1.1-1.5c0-0.7-0.4-1.3-1.1-1.5c-0.2-0.1-0.4-0.2-0.5-0.4C11,6.5,11,6.2,11.2,5.9c0.2-0.3,0.5-0.3,0.9-0.2
	C13.5,6.1,14.4,7.3,14.4,8.8z"/>
</svg>
