<!-- Generator: Adobe Illustrator 18.0.0, SVG Export Plug-In  -->
<svg version="1.1"
	 xmlns="http://www.w3.org/2000/svg" xmlns:xlink="http://www.w3.org/1999/xlink" xmlns:a="http://ns.adobe.com/AdobeSVGViewerExtensions/3.0/"
	 x="0px" y="0px" width="11.5px" height="17.5px" viewBox="0 0 11.5 17.5" enable-background="new 0 0 11.5 17.5"
	 xml:space="preserve">
<path fill="#FFFFFF" d="M3.7,17.5h-3c-0.4,0-0.7-0.3-0.7-0.7v-16C0,0.3,0.3,0,0.7,0h3c0.4,0,0.7,0.3,0.7,0.7v16
	C4.5,17.2,4.1,17.5,3.7,17.5z"/>
<path fill="#FFFFFF" d="M10.8,17.5h-3c-0.4,0-0.7-0.3-0.7-0.7v-16C7.1,0.3,7.4,0,7.8,0h3c0.4,0,0.7,0.3,0.7,0.7v16
	C11.5,17.2,11.2,17.5,10.8,17.5z"/>
</svg>
