<svg version="1.1"
	 xmlns="http://www.w3.org/2000/svg" xmlns:xlink="http://www.w3.org/1999/xlink" xmlns:a="http://ns.adobe.com/AdobeSVGViewerExtensions/3.0/"
	 x="0px" y="0px" width="20.8px" height="17.5px" viewBox="0 0 20.8 17.5" enable-background="new 0 0 20.8 17.5"
	 xml:space="preserve">
<path fill="#313131" d="M0,6.2c0.2-0.5,0.6-0.7,1.1-0.6c0.7,0,1.5,0,2.2,0c0.2,0,0.3,0,0.4-0.2c1.7-1.6,3.3-3.3,5-4.9
	c0.2-0.2,0.4-0.3,0.6-0.4c0.5-0.2,0.9,0,1.1,0.5c0,0.1,0,0.3,0,0.4c0,5.1,0,10.2,0,15.2c0,0.2,0,0.5-0.1,0.7
	c-0.2,0.5-0.6,0.7-1.1,0.4C9,17.3,8.9,17.1,8.7,17c-1.7-1.6-3.3-3.3-5-4.9c-0.1-0.1-0.2-0.1-0.4-0.1c-0.8,0-1.5,0-2.3,0
	c-0.5,0-0.9-0.1-1.1-0.6C0,9.6,0,7.9,0,6.2z"/>
<path fill="#313131" d="M20.8,9.2c-0.1,0.5-0.1,0.9-0.2,1.4c-0.5,2.3-1.7,4.1-3.7,5.5c-0.3,0.2-0.6,0.4-0.9,0.5
	c-0.3,0.1-0.6,0.1-0.9-0.1c-0.2-0.2-0.3-0.5-0.3-0.8c0.1-0.3,0.3-0.4,0.5-0.6c1-0.5,1.8-1.2,2.4-2.1c1.1-1.5,1.6-3.3,1.4-5.2
	c-0.3-2.5-1.6-4.3-3.8-5.5c-0.3-0.2-0.6-0.4-0.5-0.9c0-0.5,0.5-0.8,1-0.6C16.2,1,16.6,1.3,17,1.5c2,1.4,3.3,3.4,3.7,5.8
	c0.1,0.3,0.1,0.7,0.1,1C20.8,8.6,20.8,8.9,20.8,9.2z"/>
<path fill="#313131" d="M17.6,8.9c-0.1,2.2-1.1,4.1-3.3,5.4c-0.4,0.2-0.7,0.2-1,0c-0.2-0.2-0.3-0.5-0.2-0.8c0.1-0.3,0.3-0.4,0.5-0.5
	c1.2-0.7,2-1.8,2.3-3.2c0.4-2-0.5-4.1-2.2-5.1c-0.2-0.1-0.4-0.3-0.5-0.4C13,4,13,3.6,13.2,3.3c0.2-0.2,0.6-0.4,0.8-0.2
	c0.6,0.2,1.1,0.6,1.5,1.1C16.9,5.4,17.6,6.9,17.6,8.9z"/>
<path fill="#313131" d="M14.4,8.8c0,1.5-1.1,2.8-2.4,3.1c-0.4,0.1-0.7-0.1-0.9-0.5c-0.1-0.4,0-0.7,0.3-0.9c0.1,0,0.2-0.1,0.3-0.1
	c0.7-0.3,1.1-0.8,1.1-1.5c0-0.7-0.4-1.3-1.1-1.5c-0.2-0.1-0.4-0.2-0.5-0.4C11,6.5,11,6.2,11.2,5.9c0.2-0.3,0.5-0.3,0.9-0.2
	C13.5,6.1,14.4,7.3,14.4,8.8z"/>
</svg>
